PathFileType	4	(X/Y/Z)	./resultDataOpenSim/trcMotMarkerGrf/sub09/qtm-01-03.trc
DataRate	CameraRate	NumFrames	NumMarkers	Units	OrigDataRate	OrigDataStartFrame	OrigNumFrames
250.000000	250.000000	7	24	m	250.000000	291	465
Frame#	Time	L.Toe.Tip			R.Toe.Tip			L.Ankle.Lat			R.Ankle.Lat			L.Ankle.Med			R.Ankle.Med			L.Heel			R.Heel			L.Knee.Lat			R.Knee.Lat			L.Knee.Med			R.Knee.Med			L.Thigh.Upper			R.Thigh.Upper			L.ASIS			R.ASIS			V.Sacral			L.Acromium			R.Acromium			C7			L.Elbow			R.Elbow			L.Wrist.Lat			R.Wrist.Lat
		X1	Y1	Z1	X2	Y2	Z2	X3	Y3	Z3	X4	Y4	Z4	X5	Y5	Z5	X6	Y6	Z6	X7	Y7	Z7	X8	Y8	Z8	X9	Y9	Z9	X10	Y10	Z10	X11	Y11	Z11	X12	Y12	Z12	X13	Y13	Z13	X14	Y14	Z14	X15	Y15	Z15	X16	Y16	Z16	X17	Y17	Z17	X18	Y18	Z18	X19	Y19	Z19	X20	Y20	Z20	X21	Y21	Z21	X22	Y22	Z22	X23	Y23	Z23	X24	Y24	Z24

291	1.16	0.15356377	0.040352597	0.0034270572	0.98430582	0.059586801	0.098987796	0.045634216	0.1422743	-0.048436401	0.83395338	0.053670053	0.13020271	0.073984796	0.15048741	0.046406563	0.84136772	0.096302631	0.040242617	-0.031797059	0.15111925	-0.0036777683	0.77275466	0.027177793	0.076862742	0.32628071	0.45801204	-0.094696359	0.74442656	0.50287315	0.18543908	0.3317693	0.45331398	0.03068332	0.73736693	0.48414845	0.06032559	0.47271513	0.84482089	-0.1295095	0.53684326	0.84444337	0.23854585	0.58503735	0.91772985	-0.087918695	0.60939418	0.93088843	0.15511113	0.43540857	0.98034436	0.05480889	0.59203304	1.3760702	-0.12097187	0.54523366	1.3904762	0.20803966	0.50233246	1.4336175	0.03644583	0.46617366	1.0248615	-0.19386248	0.39292983	1.0622717	0.28395577	0.66345227	0.83980149	-0.18087282	0.49752117	0.81805296	0.33977239
292	1.164	0.1541132	0.040530519	0.0031571719	0.98700788	0.054773401	0.098315059	0.049235895	0.14544293	-0.049818036	0.83742142	0.052849203	0.1307621	0.077728463	0.15300615	0.044929026	0.84408747	0.09555849	0.040728438	-0.027818728	0.15601279	-0.0049635501	0.77438888	0.028368353	0.078108816	0.33467571	0.4571539	-0.095204028	0.75293917	0.50414518	0.18522442	0.33986709	0.45194638	0.03049881	0.74428093	0.48429789	0.06060961	0.48042992	0.84358276	-0.12926726	0.54556561	0.84486224	0.23889919	0.59304894	0.91678691	-0.087364548	0.61696937	0.93120591	0.15536604	0.44269533	0.98012263	0.053830529	0.59864789	1.3757439	-0.12078239	0.5522019	1.3900324	0.20844726	0.50922031	1.4332078	0.036901221	0.47261301	1.0245723	-0.1932631	0.40024921	1.061643	0.28438161	0.66882372	0.83850342	-0.18085401	0.50484916	0.81741488	0.3400492
293	1.168	0.15459829	0.04072072	0.0028660782	0.98924333	0.050207009	0.097316544	0.052991174	0.1486971	-0.051170775	0.840312	0.052184704	0.13097582	0.08183842	0.15558832	0.043420603	0.84641307	0.095023604	0.040888003	-0.023532027	0.16109569	-0.0060979343	0.77554918	0.029374441	0.079130156	0.34326891	0.45625058	-0.095737161	0.76165531	0.50561921	0.18495994	0.34787556	0.45059598	0.030298776	0.7513021	0.48484375	0.060931679	0.48813713	0.84239599	-0.12907355	0.55412945	0.84548911	0.23924255	0.60104578	0.91590635	-0.086751875	0.62450286	0.93164294	0.15566611	0.45005954	0.97985142	0.053283486	0.60527297	1.3755091	-0.12059081	0.55921169	1.3896368	0.20882058	0.51603315	1.4328355	0.037301336	0.47907335	1.0243879	-0.19263339	0.40765736	1.0611069	0.28486175	0.67412032	0.83723223	-0.18085672	0.51225024	0.81684113	0.34029536
294	1.172	0.15507113	0.040960767	0.0025609023	0.99102422	0.04650102	0.095822306	0.056908623	0.15205217	-0.052485276	0.84256625	0.051716837	0.13075004	0.086341425	0.15824345	0.041882103	0.84816423	0.094566273	0.040572229	-0.018899405	0.16637393	-0.0070810788	0.77629153	0.030111117	0.079771716	0.35215416	0.45526129	-0.096361886	0.77047238	0.50707614	0.18460072	0.35610644	0.44925073	0.029901104	0.75839669	0.4856602	0.061216754	0.49593009	0.84127482	-0.12882421	0.56250595	0.84627209	0.23960822	0.60901351	0.91509329	-0.086078244	0.63199892	0.93217499	0.15599584	0.45759011	0.97942624	0.053606991	0.61191272	1.3753613	-0.12038841	0.56625945	1.3892905	0.20915626	0.5227931	1.4324885	0.037661358	0.48554759	1.0243215	-0.19198034	0.41513412	1.0606756	0.28538253	0.67933667	0.83599826	-0.18087036	0.51971744	0.8163368	0.3405147
295	1.176	0.1556512	0.041324891	0.002256262	0.992314	0.044056106	0.094027187	0.061055073	0.15554304	-0.053749826	0.84413626	0.051486185	0.13014971	0.091259259	0.16099328	0.040329848	0.84924017	0.094085117	0.039825736	-0.013880469	0.17184007	-0.0079347654	0.77676015	0.030541379	0.079948882	0.36144951	0.45417954	-0.097158201	0.77934132	0.50836479	0.18420392	0.36515289	0.44788074	0.029076577	0.7655201	0.48662805	0.0614074	0.50391827	0.84025897	-0.12840291	0.57067221	0.84715302	0.24001833	0.61693816	0.91435287	-0.085339443	0.63944226	0.93277773	0.15634216	0.46521435	0.97888679	0.054535468	0.6185655	1.3753002	-0.12017254	0.57333071	1.3890121	0.20946201	0.52952338	1.4321635	0.037996299	0.49202678	1.0243881	-0.19130979	0.42260525	1.0603379	0.28587728	0.68447482	0.83481776	-0.18088805	0.5272334	0.81590921	0.34070769
296	1.18	0.1564656	0.041882511	0.0019650177	0.99314598	0.042765105	0.092366556	0.065524186	0.15919002	-0.054952436	0.84501493	0.051525284	0.12939424	0.096596003	0.16385057	0.038791263	0.84975597	0.093564623	0.038876425	-0.0084497718	0.17746745	-0.008696619	0.77710951	0.030722201	0.079767617	0.37120921	0.45303424	-0.09812827	0.78831789	0.50943467	0.18396734	0.37546407	0.44640157	0.027728106	0.77266317	0.4876807	0.061462471	0.51213019	0.83936601	-0.12775698	0.57860975	0.84808216	0.2404852	0.62480587	0.91369038	-0.084529544	0.64680467	0.93343844	0.15670503	0.47279466	0.97839658	0.05541557	0.62522786	1.3753218	-0.11994774	0.58039909	1.3888222	0.20974901	0.53623377	1.4318771	0.038312473	0.49849747	1.0245939	-0.19062766	0.43003649	1.0600657	0.28629656	0.68954234	0.83370235	-0.18091169	0.53478455	0.81556008	0.34087493
297	1.184	0.1575805	0.042663819	0.0016858614	0.99368523	0.042154407	0.091162412	0.070385394	0.16298725	-0.056089296	0.84532103	0.051805978	0.12873182	0.10231749	0.16681543	0.037295657	0.84994649	0.093049167	0.037998319	-0.0026082585	0.18322635	-0.0094081954	0.7774181	0.030773688	0.079510656	0.38133815	0.45185724	-0.099172149	0.79743945	0.51029206	0.1840591	0.38672599	0.44470676	0.026089828	0.77985776	0.48881631	0.061359409	0.52045357	0.83854523	-0.12695452	0.58631709	0.84902967	0.24101764	0.63260168	0.91311123	-0.083645049	0.65406226	0.93415388	0.15710196	0.48022945	0.97813095	0.055698807	0.63189915	1.3754144	-0.11972318	0.58744353	1.388723	0.21002705	0.5429334	1.4316569	0.038621521	0.50494351	1.0249278	-0.18994056	0.4374848	1.0598374	0.28665731	0.69454539	0.83265199	-0.18094282	0.54236868	0.81528012	0.3410199
